<?xml version="1.0" encoding="UTF-8"?>
<svg id="Layer_4" data-name="Layer 4" xmlns="http://www.w3.org/2000/svg" viewBox="0 0 472.89 480.08">
  <defs>
    <style>
      .cls-1 {
        fill: #1a3f70;
      }

      .cls-1, .cls-2 {
        stroke-width: 0px;
      }

      .cls-3 {
        font-family: MinionConceptRoman-Medium, 'Minion Variable Concept';
        font-size: 41px;
        font-variation-settings: 'wght' 500, 'opsz' 11;
        font-weight: 500;
      }

      .cls-3, .cls-2, .cls-4 {
        fill: #2b598e;
      }

      .cls-5, .cls-6, .cls-7, .cls-8, .cls-9, .cls-10 {
        fill: none;
      }

      .cls-5, .cls-6, .cls-7, .cls-8, .cls-9, .cls-10, .cls-4 {
        stroke-miterlimit: 10;
      }

      .cls-5, .cls-7 {
        stroke: #000;
      }

      .cls-5, .cls-8 {
        stroke-width: 3px;
      }

      .cls-6, .cls-7 {
        stroke-width: 2px;
      }

      .cls-6, .cls-8 {
        stroke: #e0b42c;
      }

      .cls-9, .cls-4 {
        stroke: #2b598e;
        stroke-width: 21px;
      }

      .cls-10 {
        stroke: #5e5f5f;
        stroke-width: 4px;
      }

      .cls-11 {
        letter-spacing: .16em;
      }

      .cls-12 {
        letter-spacing: .17em;
      }
    </style>
  </defs>
  <text class="cls-3" transform="translate(27.85 465.2)"><tspan class="cls-11" x="0" y="0">A N A L Y T I C </tspan><tspan class="cls-12" x="378.96" y="0">S</tspan></text>
  <line class="cls-5" x1="129.44" y1="400.47" x2="127.53" y2="258.18"/>
  <line class="cls-5" x1="225.22" y1="401.62" x2="225.22" y2="351.94"/>
  <line class="cls-5" x1="318.77" y1="406.22" x2="318.77" y2="329.33"/>
  <path class="cls-5" d="m220.6,79.08c.39,18.94.77,37.89,1.16,56.83l-1.41,23.55-1.57,24.37-.78,19.17.94,39.47,2.35,43.54,3.45,41.91c.16,7.53.31,15.05.47,22.58"/>
  <path class="cls-5" d="m127.86,129.75c4.21,27.93,6.43,60.96,3.46,97.73-.92,11.38-2.26,22.24-3.91,32.52"/>
  <path class="cls-5" d="m324.75,116.89s-.12,6.34.47,11.7l3.35,33.38,2.24,22.6s2.06,25.83,1.65,31.07c.22,8.61.11,17.78-.45,27.43-1.21,20.68-4.28,39.19-8,55.16l1.67,25.64"/>
  <line class="cls-8" x1="150.66" y1="288.12" x2="184.56" y2="222.01"/>
  <path class="cls-8" d="m193.61,213.2c5.08-1.38,10.39-2.7,15.91-3.94,6.06-1.36,11.93-2.51,17.58-3.49,14.07-2.27,28.15-4.55,42.22-6.82"/>
  <path class="cls-8" d="m280.31,191.96l18.21-36.23c5.21-10.09,10.41-20.17,15.62-30.26"/>
  <ellipse class="cls-6" cx="188.52" cy="216.62" rx="5.56" ry="6.38"/>
  <ellipse class="cls-6" cx="149.13" cy="292.9" rx="4.67" ry="5.18"/>
  <ellipse class="cls-6" cx="276.03" cy="198.05" rx="6.71" ry="6.94"/>
  <ellipse class="cls-6" cx="317.08" cy="121.68" rx="5.35" ry="5.54"/>
  <path class="cls-5" d="m216.11,258.68s29.33-16.55,31.89-17.32l41.05-19.9"/>
  <path class="cls-5" d="m296.67,213.4s14.91-25.75,16.49-27.49c7.37-10.95,14.74-21.89,22.11-32.84"/>
  <path class="cls-5" d="m148.08,265.3s23.17-2.85,25.02-2.66l31.6-1.87"/>
  <path class="cls-5" d="m136.77,288.85c.81-1.33,1.65-2.89,2.44-4.67.96-2.17,1.63-4.2,2.11-5.97.36-1.79.72-3.58,1.07-5.38"/>
  <ellipse class="cls-7" cx="144.4" cy="267.47" rx="4.96" ry="5.78"/>
  <ellipse class="cls-7" cx="210.82" cy="260.36" rx="6.52" ry="6.75"/>
  <ellipse class="cls-7" cx="294.12" cy="218.99" rx="6.52" ry="6.75"/>
  <ellipse class="cls-7" cx="338.94" cy="149.62" rx="5.41" ry="5.75"/>
  <line class="cls-8" x1="141.81" y1="305.55" x2="146.16" y2="297.07"/>
  <line class="cls-6" x1="51.56" y1="403.58" x2="102.45" y2="356.49"/>
  <ellipse class="cls-6" cx="105.42" cy="353.84" rx="4.41" ry="4.89"/>
  <line class="cls-6" x1="107.82" y1="350.59" x2="140.99" y2="311.77"/>
  <path class="cls-7" d="m43.43,398.3s20.7-24.62,22.72-26.17l30.01-31.57"/>
  <ellipse class="cls-7" cx="99.8" cy="336.63" rx="4.69" ry="5.45"/>
  <path class="cls-7" d="m104.25,334.16s11.28-13.82,12.39-14.67l16.42-17.65"/>
  <line class="cls-10" x1="225.22" y1="350.5" x2="225.22" y2="353.56"/>
  <path class="cls-2" d="m62.51,37.58c.18.54.09,1.11.09,1.66,0,120.77,0,241.55,0,362.32,0,.32.03.64,0,.96-.1.84.19,1.18.93,1.06.39-.06.6.02.84,0,.51-.05,78.27-.95,258-2.96,28.44-.21,56.89-.41,85.33-.62,21.73-4.25,43.46-8.49,65.19-12.74-16.62,15.4-33.25,30.81-49.87,46.21-.41.35-.88.17-1.32.17-110.83,0-221.66,0-332.49,0-4.93,0-20.21-1.56-40.38.04-7.79.62-14.21,1.49-18.61,2.16,1.57-19.4,3.51-47.41,4.74-81.19,2.56-70.63,4.9-144.24-8.3-232.89C22.13,91.32,14.32,49.39,0,0c20.84,12.53,41.67,25.05,62.51,37.58Z"/>
  <ellipse class="cls-9" cx="223.16" cy="205.21" rx="128.75" ry="132.87"/>
  <path class="cls-4" d="m351.74,378.54c-9.19-1.2-9.76-17.33-22.6-34.99-9.07-12.48-20.09-19.95-27.78-24.25,5.11-4.34,10.21-8.69,15.32-13.03,2.94,7.28,8.51,18.69,18.95,29.55,15.89,16.54,31.87,20.16,31.42,29.69-.32,6.74-8.74,13.89-15.32,13.03Z"/>
  <path class="cls-1" d="m343.96,303.27c-17.03,13.87-34.05,27.74-51.08,41.62-2.42-3.88-4.84-7.75-7.26-11.63,7.4-3.78,16.52-9.31,25.91-17.34,9.94-8.5,17.1-17.17,22.07-24.21,3.45,3.85,6.9,7.71,10.35,11.56Z"/>
</svg>